# File created by Blade
# Date/Time:  Tue Apr 07 20:53:18 2015
#---------------------------------------------------------
:version 1.10
:name HOM
:units
  mass 1.0
  length 1.000000
  angle deg
:documentation
     Acclaim Skeleton File
:root
   axis xyz
   order TX TY TZ RX RY RZ
   position 0.000000 0.000000 0.000000
   orientation 0 0 0
:bonedata
   begin
      id 1
      name Spine_dum
      direction 0.000000 1.000000 0.000000
      length 4.885285
      axis 0.0 0.0 0.0 xyz
   end
   begin
      id 2
      name LeftUpLeg_dum
      direction 1.000000 0.000000 0.000000
      length 2.672193
      axis 0.0 0.0 0.0 xyz
   end
   begin
      id 3
      name RightUpLeg_dum
      direction -1.000000 0.000000 0.000000
      length 2.672193
      axis 0.0 0.0 0.0 xyz
   end
   begin
      id 4
      name Spine
      direction 0.000000 1.000000 0.000000
      length 0.000000
      axis 0.0 0.0 0.0 xyz
      dof rx ry rz
   end
   begin
      id 5
      name Spine_dum1
      direction 0.000000 1.000000 0.000000
      length 16.494159
      axis 0.0 0.0 0.0 xyz
   end
   begin
      id 6
      name Spine_dum2
      direction 0.000000 1.000000 0.000000
      length 10.663448
      axis 0.0 0.0 0.0 xyz
   end
   begin
      id 7
      name Spine_dum3
      direction 0.000000 1.000000 0.000000
      length 10.663448
      axis 0.0 0.0 0.0 xyz
   end
   begin
      id 8
      name Head
      direction 0.000000 1.000000 0.000000
      length 4.527550
      axis 0.0 0.0 0.0 xyz
      dof rx ry rz
   end
   begin
      id 9
      name LeftShoulder
      direction 1.000000 0.000000 0.000000
      length 7.531907
      axis 0.0 0.0 -90.0 xyz
      dof rx ry rz
   end
   begin
      id 10
      name LeftArm
      direction 1.000000 0.000000 0.000000
      length 10.229199
      axis 0.0 0.0 -90.0 xyz
      dof rx ry rz
   end
   begin
      id 11
      name LeftForeArm
      direction 1.000000 0.000000 0.000000
      length 8.673495
      axis 0.0 0.0 -90.0 xyz
      dof ry rz rx
   end
   begin
      id 12
      name LeftHand
      direction 0.000000 0.000000 0.000000
      length 0.000000
      axis 0.0 0.0 -90.0 xyz
      dof rx ry rz
   end
   begin
      id 13
      name LeftHand_dum1
      direction 0.000000 0.000000 0.000000
      length 0.000000
      axis 0.0 0.0 -90.0 xyz
   end
   begin
      id 14
      name LeftHand_dum2
      direction 1.000000 0.000000 0.000000
      length 3.937000
      axis 0.0 0.0 -90.0 xyz
   end
   begin
      id 15
      name LeftHandThumb1
      direction 0.000000 0.000000 1.000000
      length 3.937000
      axis 0.0 0.0 -90.0 xyz
      dof rx rz ry
   end
   begin
      id 16
      name RightShoulder
      direction -1.000000 0.000000 0.000000
      length 7.531907
      axis 0.0 0.0 90.0 xyz
      dof rx ry rz
   end
   begin
      id 17
      name RightArm
      direction -1.000000 0.000000 0.000000
      length 10.229199
      axis 0.0 0.0 90.0 xyz
      dof rx ry rz
   end
   begin
      id 18
      name RightForeArm
      direction -1.000000 0.000000 0.000000
      length 8.673495
      axis 0.0 0.0 90.0 xyz
      dof ry rz rx
   end
   begin
      id 19
      name RightHand
      direction 0.000000 0.000000 0.000000
      length 0.000000
      axis 0.0 0.0 90.0 xyz
      dof rx ry rz
   end
   begin
      id 20
      name RightHand_dum1
      direction 0.000000 0.000000 0.000000
      length 0.000000
      axis 0.0 0.0 90.0 xyz
   end
   begin
      id 21
      name RightHand_dum2
      direction -1.000000 0.000000 0.000000
      length 3.937000
      axis 0.0 0.0 90.0 xyz
   end
   begin
      id 22
      name RightHandThumb1
      direction 0.000000 0.000000 1.000000
      length 3.937000
      axis 0.0 0.0 90.0 xyz
      dof rx rz ry
   end
   begin
      id 23
      name LeftUpLeg
      direction 0.000000 -1.000000 0.000000
      length 16.263388
      axis 0.0 0.0 0.0 xyz
      dof rx ry rz
   end
   begin
      id 24
      name LeftLeg
      direction 0.000000 -1.000000 0.000000
      length 14.328163
      axis 0.0 0.0 0.0 xyz
      dof rx ry rz
   end
   begin
      id 25
      name LeftFoot
      direction 0.000000 -0.258819 0.965926
      length 5.031290
      axis 15.0 0.0 0.0 xyz
      dof rx ry rz
   end
   begin
      id 26
      name LeftToeBase
      direction 0.000000 0.000000 1.000000
      length 2.952750
      axis 0.0 0.0 0.0 xyz
      dof rx ry rz
   end
   begin
      id 27
      name RightUpLeg
      direction 0.000000 -1.000000 0.000000
      length 16.263388
      axis 0.0 0.0 0.0 xyz
      dof rx ry rz
   end
   begin
      id 28
      name RightLeg
      direction 0.000000 -1.000000 0.000000
      length 14.328163
      axis 0.0 0.0 0.0 xyz
      dof rx ry rz
   end
   begin
      id 29
      name RightFoot
      direction 0.000000 -0.258819 0.965926
      length 5.031290
      axis 15.0 0.0 0.0 xyz
      dof rx ry rz
   end
   begin
      id 30
      name RightToeBase
      direction 0.000000 0.000000 1.000000
      length 2.952750
      axis 0.0 0.0 0.0 xyz
      dof rx ry rz
   end
:hierarchy
   begin
      root Spine_dum LeftUpLeg_dum RightUpLeg_dum
      Spine_dum Spine
      LeftUpLeg_dum LeftUpLeg
      RightUpLeg_dum RightUpLeg
      Spine Spine_dum1 Spine_dum2 Spine_dum3
      Spine_dum1 Head
      Spine_dum2 LeftShoulder
      Spine_dum3 RightShoulder
      LeftShoulder LeftArm
      LeftArm LeftForeArm
      LeftForeArm LeftHand
      LeftHand LeftHand_dum1 LeftHand_dum2
      LeftHand_dum1 LeftHandThumb1
      RightShoulder RightArm
      RightArm RightForeArm
      RightForeArm RightHand
      RightHand RightHand_dum1 RightHand_dum2
      RightHand_dum1 RightHandThumb1
      LeftUpLeg LeftLeg
      LeftLeg LeftFoot
      LeftFoot LeftToeBase
      RightUpLeg RightLeg
      RightLeg RightFoot
      RightFoot RightToeBase
   end

# File created by Blade
# Date/Time:  Tue Apr 07 20:53:11 2015
# Frame Rate: 120.000 fps
#------------------------------------------------------
:FULLY-SPECIFIED
:DEGREES
117
root -7.332525 33.080840 -0.206915 10.945574 -70.606123 -7.558381
Spine 1.132716 -5.888227 2.082971
Head 32.363514 -5.825297 -2.185429
LeftShoulder -22.369831 46.599517 4.554638
LeftArm 50.820701 -5.484552 -87.345108
LeftForeArm -9.815454 0.000000 5.067393
LeftHand 4.060321 -0.000000 -6.354429
LeftHandThumb1 -26.253704 0.000000 33.147579
RightShoulder -7.461828 -8.303570 -18.144306
RightArm 16.390900 -6.798028 85.109696
RightForeArm 10.283069 0.000000 9.532561
RightHand 4.273045 -0.000000 16.739755
RightHandThumb1 -24.326973 -0.000000 -32.862282
LeftUpLeg -24.634108 -7.028748 6.068149
LeftLeg 44.571417 -0.000000 -0.000000
LeftFoot -10.863015 11.774034 -16.528321
LeftToeBase -19.086164 -0.000000 0.000000
RightUpLeg -2.768761 17.368607 6.640473
RightLeg 11.041489 -0.000000 -0.000000
RightFoot -4.828847 1.051893 -0.066635
RightToeBase -14.631503 -0.000000 0.000000
118
root -7.402958 33.097269 -0.148907 10.852723 -71.751888 -7.483985
Spine 1.205295 -5.735471 2.008829
Head 32.502508 -5.040889 -2.441661
LeftShoulder -22.451842 46.607981 4.433005
LeftArm 50.822810 -5.943029 -87.266749
LeftForeArm -9.833100 0.000000 4.826897
LeftHand 4.111663 -0.000000 -6.530247
LeftHandThumb1 -26.253704 0.000000 33.147579
RightShoulder -7.314116 -7.996318 -18.346899
RightArm 16.654269 -6.588133 84.744260
RightForeArm 10.198790 -0.000000 9.457984
RightHand 4.266568 -0.000000 16.792735
RightHandThumb1 -24.326973 -0.000000 -32.862282
LeftUpLeg -24.725189 -7.766652 6.129475
LeftLeg 42.698909 -0.000000 -0.000000
LeftFoot -10.765610 11.960259 -16.554415
LeftToeBase -18.575172 -0.000000 0.000000
RightUpLeg -2.561370 17.539118 6.434219
RightLeg 11.053846 -0.000000 -0.000000
RightFoot -4.842452 1.390275 0.079575
RightToeBase -14.312502 -0.000000 0.000000
119
root -7.474120 33.110978 -0.093083 10.783122 -72.874163 -7.421214
Spine 1.265941 -5.557546 1.953200
Head 32.610112 -4.273013 -2.722932
LeftShoulder -22.525143 46.668225 4.297289
LeftArm 50.925107 -6.391248 -87.196599
LeftForeArm -9.760539 -0.000000 4.566404
LeftHand 4.009972 -0.000000 -6.538690
LeftHandThumb1 -26.253704 0.000000 33.147579
RightShoulder -7.203422 -7.687269 -18.568635
RightArm 16.883725 -6.471416 84.389464
RightForeArm 10.072011 0.000000 9.424722
RightHand 4.196265 0.000000 16.721553
RightHandThumb1 -24.326973 -0.000000 -32.862282
LeftUpLeg -24.811192 -8.473945 6.237718
LeftLeg 40.705408 -0.000000 -0.000000
LeftFoot -10.709820 12.130019 -16.864790
LeftToeBase -17.851602 -0.000000 0.000000
RightUpLeg -2.369626 17.699210 6.240051
RightLeg 11.076382 -0.000000 -0.000000
RightFoot -4.705374 1.823188 0.155409
RightToeBase -14.870544 -0.000000 0.000000
120
root -7.544998 33.122637 -0.037015 10.803008 -73.962210 -7.439765
Spine 1.321438 -5.415599 1.930523
Head 32.688706 -3.484108 -2.985252
LeftShoulder -22.529425 46.639864 4.233143
LeftArm 50.895146 -6.767939 -87.022908
LeftForeArm -9.839487 -0.000000 4.280423
LeftHand 4.112843 0.000000 -6.618640
LeftHandThumb1 -26.253704 0.000000 33.147579
RightShoulder -7.068294 -7.373183 -18.774330
RightArm 17.125663 -6.426517 83.996131
RightForeArm 9.992841 -0.000000 9.374467
RightHand 4.176251 -0.000000 16.737583
RightHandThumb1 -24.326973 -0.000000 -32.862282
LeftUpLeg -24.895520 -9.181436 6.409131
LeftLeg 38.663017 -0.000000 -0.000000
LeftFoot -10.441856 12.479833 -16.959490
LeftToeBase -17.593694 -0.000000 0.000000
RightUpLeg -2.167097 17.832778 6.076570
RightLeg 11.042272 -0.000000 -0.000000
RightFoot -4.604331 2.178171 0.011160
RightToeBase -14.995108 -0.000000 0.000000
121
root -7.622135 33.132235 0.019625 10.833170 -75.022978 -7.503698
Spine 1.399768 -5.278128 1.912181
Head 32.767648 -2.731857 -3.224876
LeftShoulder -22.480861 46.550580 4.243944
LeftArm 50.744026 -7.184597 -86.937141
LeftForeArm -9.765683 -0.000000 4.130748
LeftHand 4.086104 -0.000000 -6.600823
LeftHandThumb1 -26.253704 0.000000 33.147579
RightShoulder -6.919844 -7.102239 -18.963826
RightArm 17.420316 -6.259311 83.637641
RightForeArm 9.643203 0.000000 9.256870
RightHand 4.164004 -0.000000 16.924255
RightHandThumb1 -24.326973 -0.000000 -32.862282
LeftUpLeg -24.950668 -9.852935 6.596036
LeftLeg 36.567321 -0.000000 -0.000000
LeftFoot -9.945809 13.050449 -16.893077
LeftToeBase -17.547823 -0.000000 0.000000
RightUpLeg -1.895666 17.976093 5.938595
RightLeg 10.953993 -0.000000 -0.000000
RightFoot -4.466103 2.464774 0.057801
RightToeBase -15.584341 -0.000000 0.000000
122
root -7.701828 33.139950 0.077021 10.833956 -76.056147 -7.527743
Spine 1.461249 -5.153230 1.895023
Head 32.839569 -2.006229 -3.509502
LeftShoulder -22.734496 46.790878 3.928009
LeftArm 51.056647 -7.551393 -86.793115
LeftForeArm -9.743578 -0.000000 3.913132
LeftHand 4.011436 -0.000000 -6.737948
LeftHandThumb1 -26.253704 0.000000 33.147579
RightShoulder -6.775670 -6.871734 -19.176648
RightArm 17.732737 -6.144616 83.306902
RightForeArm 9.574599 -0.000000 9.119044
RightHand 4.176196 0.000000 16.893886
RightHandThumb1 -24.326973 -0.000000 -32.862282
LeftUpLeg -24.992632 -10.487412 6.789835
LeftLeg 34.419250 -0.000000 -0.000000
LeftFoot -9.351088 13.611933 -16.776782
LeftToeBase -17.040417 -0.000000 0.000000
RightUpLeg -1.645894 18.014546 5.792990
RightLeg 10.886755 -0.000000 -0.000000
RightFoot -4.383927 2.747141 -0.117599
RightToeBase -16.291622 -0.000000 0.000000
123
root -7.780091 33.145635 0.128512 10.977424 -77.003213 -7.682813
Spine 1.517316 -5.057346 1.895153
Head 32.892317 -1.312871 -3.702700
LeftShoulder -22.790592 46.896344 3.840188
LeftArm 51.143817 -7.931509 -86.713184
LeftForeArm -9.703845 -0.000000 3.811207
LeftHand 4.038500 -0.000000 -6.952699
LeftHandThumb1 -26.253704 0.000000 33.147579
RightShoulder -6.634851 -6.619372 -19.340752
RightArm 18.029085 -5.949773 82.990594
RightForeArm 9.349296 -0.000000 8.931721
RightHand 4.240074 -0.000000 16.817406
RightHandThumb1 -24.326973 -0.000000 -32.862282
LeftUpLeg -25.062452 -11.157163 7.074931
LeftLeg 32.216682 -0.000000 -0.000000
LeftFoot -8.520023 14.156248 -16.732908
LeftToeBase -16.736015 -0.000000 0.000000
RightUpLeg -1.415314 18.144529 5.691583
RightLeg 10.826729 -0.000000 -0.000000
RightFoot -4.354761 2.954872 -0.178141
RightToeBase -16.349748 -0.000000 0.000000
124
root -7.863279 33.148215 0.177487 11.438170 -77.927284 -8.170714
Spine 1.575390 -4.938652 1.972862
Head 32.933735 -0.682764 -3.931399
LeftShoulder -22.923349 46.974017 3.709040
LeftArm 51.300927 -8.288668 -86.666197
LeftForeArm -9.549099 -0.000000 3.646847
LeftHand 4.157199 -0.000000 -7.159264
LeftHandThumb1 -26.253704 0.000000 33.147579
RightShoulder -6.503423 -6.405022 -19.522670
RightArm 18.296347 -5.873409 82.648268
RightForeArm 9.082048 0.000000 8.841014
RightHand 4.195013 -0.000000 16.749681
RightHandThumb1 -24.326973 -0.000000 -32.862282
LeftUpLeg -25.122492 -11.742465 7.431302
LeftLeg 30.050219 -0.000000 -0.000000
LeftFoot -7.489142 14.730990 -16.685509
LeftToeBase -16.308862 -0.000000 0.000000
RightUpLeg -1.153409 18.293450 5.670394
RightLeg 10.736303 -0.000000 -0.000000
RightFoot -4.311136 3.085259 -0.241664
RightToeBase -16.643526 -0.000000 0.000000
125
root -7.948212 33.149901 0.228369 11.766160 -78.791100 -8.529562
Spine 1.642932 -4.847198 2.009038
Head 32.975292 -0.101332 -4.124501
LeftShoulder -23.043368 47.014867 3.610712
LeftArm 51.422227 -8.562249 -86.559366
LeftForeArm -9.197892 -0.000000 3.550429
LeftHand 3.854080 -0.000000 -6.589837
LeftHandThumb1 -26.253704 0.000000 33.147579
RightShoulder -6.361499 -6.214831 -19.683853
RightArm 18.541783 -5.788716 82.314931
RightForeArm 9.045764 -0.000000 8.749837
RightHand 4.250654 -0.000000 16.797060
RightHandThumb1 -24.326973 -0.000000 -32.862282
LeftUpLeg -25.175072 -12.346304 7.779888
LeftLeg 27.872222 -0.000000 -0.000000
LeftFoot -6.133243 15.208503 -16.524741
LeftToeBase -16.349264 -0.000000 0.000000
RightUpLeg -0.877578 18.366486 5.614776
RightLeg 10.637368 -0.000000 -0.000000
RightFoot -4.304118 3.214901 -0.323624
RightToeBase -17.118272 -0.000000 0.000000
